<svg id="レイヤー_1" xmlns="http://www.w3.org/2000/svg" viewBox="0 0 173 40"><style>.st0{fill:#df0522}</style><path d="M152.5 19.2h-8.1v-1.6h-2.5v1.6h-8.1v2.1h18.8v-2.1zm1.5 8.2h3.6l-1 6h-2.7v2.1c4.9 0 9.9-.1 12.6-1v-2.1c-2.1.8-4.7.9-7.8.9l.5-3.2h7.6c.3 1.8.6 4.1.8 4.4.4 1 1 1.3 2 1.3h1.1c1.2 0 2-.9 2-2.2v-2.9h-2.1v2.5c0 .3-.2.5-.5.5s-.5-.2-.5-.5c-.2-.7-.8-5-.8-5h-9.1l.1-.9h12.9v-1.9h-18.6l-.1 2zm-3.7 2.3v-7h-14.4v7h6.1v3.5c0 .4-.4.8-.8.8h-1.4v2.2h2c2.4 0 2.8-1.3 2.8-2.9v-3.5c-.1-.1 5.7-.1 5.7-.1zm-11.9-4.8h9.3v2.8h-9.3v-2.8z"/><path d="M133.5 33.2v2.1c3.1-.2 5.5-2.4 5.9-4.8h-2.6c-.1.1-.8 2.4-3.3 2.7zm15.8-2.6h-2.6c.4 2.4 2.7 4.5 5.8 4.8v-2.1c-2.5-.4-3.2-2.7-3.2-2.7zm10.2-8.8c-.9.2-4.3.6-5.5.7v2.3c1.2-.1 4.5-.8 5.5-1.1v-1.9zm0-2.6c-1-.3-4.3-1-5.5-1.1v2.3c1.2 0 4.6.5 5.5.7v-1.9zm8.2 2.2v-.2h2.6l-.1.8h2.1l.4-2.8h-7.6c.3-.5.6-1.1.6-1.6h-2.5c-.1.4-.9 2.1-3 2.4v2c1-.1 2-.4 2.7-.8h2.3v.2c-.1.5-.6 1.3-1.6 1.3h-3.4v2h3.5c1.4-.1 2.3-.6 2.7-1.6.4 1 1.3 1.5 2.7 1.6h3.5v-2.1h-3.4c-.9.1-1.4-.8-1.5-1.2zM165 32.8v-1.9l-3.9-.9v2l3.9.8z"/><g><path d="M2.4.7H1.1C.7.7.4.8.3 1c-.1.1-.1.2-.1.3 0 .1 0 .1-.1.1S0 1.3 0 1.2.2.3.2.2C.2.1.2 0 .3 0s.2.1.4.1h4.2c.5 0 .8-.1.8-.1.1 0 .1.1.1.2v1c0 .1 0 .1-.1.1s-.1 0-.1-.2V1c0-.2-.2-.5-1-.5H3.5V6c0 .2.1.4.3.5h.4c.1 0 .1 0 .1.1s-.1.1-.2.1H1.8c-.1 0-.2 0-.2-.1 0 0 0-.1.1-.1H2c.2 0 .2-.2.2-.5V.7zM10.9 3.6v-.2-1.5c0-.2-.1-.4-.3-.4h-.3c-.1 0-.1 0-.1-.1s.1-.1.2-.1h2c.1 0 .2 0 .2.1 0 0 0 .1-.1.1h-.2c-.2 0-.3.2-.3.4v4.3c0 .2.1.4.3.4h.4c.1 0 .1 0 .1.1s-.1.1-.1.1h-2c-.1 0-.2 0-.2-.1 0 0 0-.1.1-.1h.3c.1 0 .2-.2.2-.4V4.1h-3v2.1c0 .2.1.4.3.4h.4c.1 0 .1 0 .1.1s-.1.1-.1.1h-2c-.1 0-.1 0-.1-.1 0 0 0-.1.1-.1h.3c-.1 0-.1-.2 0-.4V3.4 1.9c0-.2-.1-.4-.3-.4h-.3c-.1 0-.1 0-.1-.1s.1-.1.2-.1h2c.1 0 .2 0 .2.1 0 0 0 .1-.1.1h-.2c-.4 0-.5.2-.5.4V3.6h2.9zM14.3 3.4V1.9c0-.2-.1-.4-.3-.4h-.3c-.1 0-.1 0-.1-.1s.1-.1.2-.1h3.7v.1s0 .1-.1.5v.5s0 .1-.1.1-.1 0-.1-.1v-.3c0-.1-.1-.2-.5-.3h-1.4s-.1 0-.1.1v1.8c0 .1 0 .1.1.1h1.5c.2 0 .3 0 .4-.1l.1-.1s.1 0 .1.1c0 0 0 .2-.1.5v.5c0 .1 0 .1-.1.1s-.1 0-.1-.1v-.3c0-.1-.1-.2-.4-.3h-1.4v1.8c0 .5.4.6 1.1.6.2 0 .6 0 .8-.1.2-.1.3-.2.3-.5 0-.1 0-.1.1-.1s.1.1.1.1c0 .2-.1.7-.1.8-.1.2-.1.2-.4.2h-3.3c-.1 0-.1 0-.1-.1 0 0 0-.1.1-.1h.3c.1 0 .2-.2.2-.4V3.4zM28.5 3.4V1.9c0-.2-.1-.4-.3-.4h-.3c-.1 0-.1 0-.1-.1s.1-.1.2-.1h3.7v.1s0 .1-.1.5v.5s0 .1-.1.1c0 0-.1 0-.1-.1v-.3c0-.1-.1-.2-.5-.3h-1.4s-.1 0-.1.1v1.8c0 .1 0 .1.1.1H31c.2 0 .3 0 .4-.1l.1-.1s.1 0 .1.1c0 0 0 .2-.1.5v.5c0 .1 0 .1-.1.1s-.1 0-.1-.1v-.3c0-.1-.1-.2-.4-.3h-1.4v1.8c0 .5.4.6 1.1.6.2 0 .6 0 .8-.1.2-.1.3-.2.3-.5 0-.1 0-.1.1-.1s.1.1.1.1c0 .2-.1.7-.1.8-.1.2-.1.2-.4.2h-3.3c-.1 0-.1 0-.1-.1 0 0 0-.1.1-.1h.3c.1 0 .2-.2.2-.4V3.4zM66.9 3.4V1.9c0-.2-.1-.4-.3-.4h-.3c-.1 0-.1 0-.1-.1s.1-.1.2-.1h3.7v.1s0 .1-.1.5v.5s0 .1-.1.1-.1 0-.1-.1v-.3c-.1-.1-.1-.2-.5-.3h-1.4s-.1 0-.1.1v1.8c0 .1 0 .1.1.1h1.5c.2 0 .3 0 .4-.1l.1-.1s.1 0 .1.1c0 0 0 .2-.1.5v.5c0 .1 0 .1-.1.1s-.1 0-.1-.1v-.3c0-.1-.1-.2-.4-.3h-1.4v1.8c0 .5.4.6 1.1.6.2 0 .6 0 .8-.1.2-.1.3-.2.3-.5 0-.1 0-.1.1-.1s.1.1.1.1c0 .2-.1.7-.1.8-.1.2-.1.2-.4.2h-3.3c-.1 0-.1 0-.1-.1 0 0 0-.1.1-.1h.3c.1 0 .2-.2.2-.4V3.4zM107.7 3.4V1.9c0-.2-.1-.4-.3-.4h-.3c-.1 0-.1 0-.1-.1s.1-.1.2-.1h3.7v.1s0 .1-.1.5v.5s0 .1-.1.1-.1 0-.1-.1v-.3c-.1-.1-.1-.2-.5-.3h-1.4s-.1 0-.1.1v1.8c0 .1 0 .1.1.1h1.5c.2 0 .3 0 .4-.1l.1-.1s.1 0 .1.1c0 0 0 .2-.1.5v.5c0 .1 0 .1-.1.1s-.1 0-.1-.1v-.3c0-.1-.1-.2-.4-.3h-1.4v1.8c0 .5.4.6 1.1.6.2 0 .6 0 .8-.1.2-.1.3-.2.3-.5 0-.1 0-.1.1-.1s.1.1.1.1c0 .2-.1.7-.1.8-.1.2-.1.2-.4.2h-3.3c-.1 0-.1 0-.1-.1 0 0 0-.1.1-.1h.3c.1 0 .2-.2.2-.4V3.4zM21.7 5.6c0 .7.1.9.3 1 .1.1.3.1.4.1.1 0 .1 0 .1.1s-.1.1-.2.1h-2c-.1 0-.2 0-.2-.1s.1-.1.1-.1h.4c.4-.2.4-.4.4-1.2l.1-5.2c0-.2 0-.3.1-.3s.2.1.3.3c.2.2 1.3 1.7 2.5 2.9.8.9 1.6 1.8 1.8 2l-.1-4c0-.5-.1-.7-.3-.8-.1-.1-.3-.1-.5-.1-.1 0-.1 0-.1-.1s.1-.1.2-.1h1.8c.1 0 .2 0 .2.1s-.1.1-.2.1h-.3c-.2.1-.3.3-.3.7l-.1 5.5c0 .2 0 .3-.1.3s-.2-.1-.3-.2c-.5-.5-1.5-1.7-2.2-2.4-.9-1-1.9-2.3-2.1-2.4l.3 3.8zM33.3 2.1c-.1-.3-.2-.4-.3-.5-.1-.1-.2-.1-.3-.1-.1 0-.1 0-.1-.1s.1-.1.2-.1h1.6c.1 0 .2 0 .2.1s-.1.1-.1.1h-.2c-.1 0-.1.1-.1.2s.1.3.2.7c.1.5.8 2.6.9 3.1l1.4-3.7c.1-.2.1-.3.2-.3s.1.1.2.3l1.5 3.6c.1-.5.7-2.4 1-3.2.1-.2.1-.3.1-.4 0-.1-.1-.2-.4-.2-.1 0-.1 0-.1-.1s.1-.1.2-.1h1.4c.1 0 .1 0 .1.1s0 .1-.1.1h-.3c-.2.1-.3.4-.4.8-.3.9-1.1 3.2-1.5 4.3-.1.3-.1.3-.2.3s-.1-.1-.2-.4L36.7 3c-.1.4-1.1 2.9-1.4 3.6-.1.3-.2.4-.3.4-.1 0-.1-.1-.2-.3l-1.5-4.6zM44 1c-.2-.5-.3-.6-.7-.7H43c-.1 0-.1 0-.1-.1s.1-.1.2-.1h2.2c.1 0 .2 0 .2.1s-.1.1-.1.1c-.1 0-.3 0-.3.1-.1 0-.1.1-.1.2s.1.4.2.7l1.5 4c.4-1 1.5-3.8 1.7-4.4 0-.1.1-.2.1-.3 0-.1 0-.1-.1-.2h-.3c-.1 0-.1 0-.1-.1s.1-.1.2-.1H49.9c.1 0 .2 0 .2.1s-.1.1-.1.1c-.1 0-.3 0-.4.1-.1.1-.2.2-.5.8-.3.8-.6 1.3-1 2.4-.6 1.3-1 2.2-1.1 2.7-.2.5-.2.6-.3.6-.1 0-.1-.1-.3-.5L44 1zM50.6 5s-.1 0 0 0l-.4 1c-.1.2-.1.4-.1.4 0 .1.1.2.3.2h.1c.1 0 .1 0 .1.1s0 .1-.1.1H48.8c-.1 0-.1 0-.1-.1 0 0 0-.1.1-.1h.2c.3 0 .5-.3.6-.6l1.8-4.5c.1-.2.1-.3.2-.3s.1.1.2.2c.2.4 1.3 3.3 1.8 4.4.3.6.5.7.6.8h.3c.1 0 .1 0 .1.1s-.1.1-.3.1h-1.4c-.1 0-.2 0-.2-.1 0 0 0-.1.1-.1s.1-.1.1-.2L52.4 5s0-.1-.1-.1l-1.7.1zm1.6-.4l-.7-1.9v-.1.1l-.7 1.9v.1l1.4-.1zM56.9 4.7c0 .9 0 1.4.2 1.5.1.1.3.2.9.2.4 0 .9 0 1.1-.2.1-.1.2-.3.2-.4 0-.1 0-.1.1-.1s.1 0 .1.1-.1.6-.1.8c0 .2-.1.2-.5.2h-3.3c-.1 0-.1 0-.1-.1 0 0 0-.1.1-.1h.3c.1 0 .2-.2.2-.4V3.4 1.9c0-.2-.1-.4-.3-.4h-.2c-.1 0-.1 0-.1-.1s.1-.1.2-.1h2c.1 0 .2 0 .2.1 0 0 0 .1-.1.1h-.3c-.2 0-.3.2-.3.4v2.8zM60.3 3.4V1.9c0-.2-.1-.4-.3-.4h-.3c-.1 0-.1 0-.1-.1s.1-.1.2-.1h2c.1 0 .2 0 .2.1 0 0 0 .1-.1.1h-.2c-.2 0-.3.2-.3.4v2.5c0 1 .2 1.5.6 1.8.3.3.7.3.9.3.3 0 .7-.1 1-.4.4-.4.4-1 .4-1.8v-.9-1.5c0-.2-.1-.4-.3-.4h-.3c-.1 0-.1 0-.1-.1s.1-.1.2-.1h1.6c.1 0 .2 0 .2.1 0 0 0 .1-.1.1h-.2c-.2 0-.3.2-.3.4v2.3c0 .8-.1 1.6-.7 2.2-.5.4-1 .5-1.5.5-.4 0-1.1 0-1.6-.5-.4-.3-.7-.9-.7-1.9V3.4zM75.1 4.2v1.9c0 .3.1.4.3.5h.4c.1 0 .1 0 .1.1s-.1.1-.2.1h-2.3c-.1 0-.2 0-.2-.1 0 0 0-.1.1-.1h.3c.2 0 .2-.2.2-.5V2.7.8c0-.3-.1-.4-.4-.5h-.3c-.1 0-.1 0-.1-.1s.1-.1.2-.1h4.2c.1 0 .1-.1.1-.1s.1 0 .1.1 0 .2-.1.4v.7c0 .1 0 .1-.1.1s-.1 0-.1-.1 0-.2-.1-.3c-.1-.1-.2-.3-.6-.3h-1.7c-.1 0-.1 0-.1.1v2.2c0 .1 0 .1.1.1h1.9c.2 0 .3 0 .4-.2 0-.1.1-.1.1-.1s.1 0 .1.1 0 .3-.1.5v.6c0 .1 0 .2-.1.2s-.1-.1-.1-.1c0-.1 0-.2-.1-.3 0-.1-.2-.3-.4-.3h-1.7s-.1 0-.1.1v.7zM84.6 6.8c.1 0 .1 0 .1.1 0 0-.1 0-.1.1-.5.1-1.1-.1-1.3-.2-.3-.2-.4-.3-1-.9-.3-.3-1-1.1-1.1-1.2l-.1-.1h-.6s-.1 0-.1.1v1.6c0 .2.1.4.3.4h.4c.1 0 .1 0 .1.1s-.1.1-.1.1h-2c-.1 0-.1 0-.1-.1 0 0 0-.1.1-.1h.3c.1 0 .2-.2.2-.4V3.4 1.9c0-.2-.1-.4-.3-.4H79c-.1 0-.1 0-.1-.1s.1-.1.2-.1h2c.5 0 1 0 1.3.3.2.1.5.5.5 1s-.2 1-.9 1.6c.6.8 1 1.4 1.6 1.9.3.4.8.7 1 .7zM80.4 4c0 .1 0 .1.1.1.2.1.4.1.6.1.3 0 .4 0 .5-.1.2-.2.4-.5.4-1.1 0-1-.7-1.3-1.1-1.3h-.4s-.1 0-.1.1V4zM117.9 6.8c.1 0 .1 0 .1.1 0 0-.1 0-.1.1-.5.1-1.1-.1-1.3-.2-.3-.2-.4-.3-1-.9-.3-.3-1-1.1-1.1-1.2l-.1-.1h-.6s-.1 0-.1.1v1.6c0 .2.1.4.3.4h.4c.1 0 .1 0 .1.1s0 .1-.1.1h-2c-.1 0-.1 0-.1-.1 0 0 0-.1.1-.1h.3c.1 0 .2-.2.2-.4V3.4 1.9c0-.2-.1-.4-.3-.4h-.3c-.1 0-.1 0-.1-.1s.1-.1.2-.1h2c.5 0 1 0 1.3.3.2.1.5.5.5 1s-.2 1-.9 1.6c.7.8 1.1 1.4 1.6 1.9.2.4.7.7 1 .7zM113.7 4c0 .1 0 .1.1.1.2.1.4.1.6.1.3 0 .4 0 .5-.1.2-.2.4-.5.4-1.1 0-1-.7-1.3-1.1-1.3h-.4c-.1 0-.1 0-.1.1V4zM84.4 4.1c0-1.2.8-2.8 3-2.8 1.8 0 3 1 3 2.7 0 1.6-1.2 2.9-3 2.9-2.1 0-3-1.6-3-2.8zm5 .1c0-1.6-.9-2.6-2.1-2.6-.8 0-1.8.5-1.8 2.2 0 1.5.8 2.7 2.2 2.7.5 0 1.7-.2 1.7-2.3zM92.3 5.8c0 .6.1.7.3.8.1 0 .3.1.4.1.1 0 .1 0 .1.1s-.1.1-.2.1H91.2c-.1 0-.2 0-.2-.1 0 0 0-.1.1-.1h.3c.2-.1.2-.3.2-.9l.1-4.3c0-.1 0-.2.1-.2s.1.1.3.2c.1.1 1.1 1.2 2.1 2.3.5.5 1.5 1.6 1.6 1.7l-.1-3.2c0-.4-.1-.6-.3-.6H95c-.1 0-.1 0-.1-.1s.1-.1.2-.1h1.6c.1 0 .2 0 .2.1 0 0 0 .1-.1.1h-.2c-.2.1-.3.2-.3.6l-.1 4.5c0 .2 0 .2-.1.2s-.2-.1-.3-.2c-.5-.4-1.5-1.4-2.2-2.1-.9-1-1.4-1.6-1.6-1.7l.3 2.8zM99.8 1.8h-1.1c-.4 0-.6 0-.7.2-.1.1-.1.2-.1.3 0 .1 0 .1-.1.1 0 0-.1 0-.1-.1s.1-.8.2-.8c0-.1 0-.1.1-.1s.1.1.3.1h4.3c.1 0 .1 0 .1.2v.8c0 .1 0 .1-.1.1s-.1 0-.1-.1v-.1c0-.2-.2-.4-.9-.4h-.9v4.4c0 .2.1.4.3.4h.4c.1 0 .1 0 .1.1s-.1.1-.1.1h-2.1c-.1 0-.1 0-.1-.1 0 0 0-.1.1-.1h.3c.1 0 .2-.2.2-.4V1.8zM104.4 3.4V1.9c0-.2-.1-.4-.2-.4h-.3c-.1 0-.1 0-.1-.1 0 0 .1-.1.2-.1h1.9c.1 0 .2 0 .2.1s0 .1-.1.1h-.2c-.2 0-.3.2-.3.4v4.4c0 .2.1.3.3.4h.4c.1 0 .1 0 .1.1s-.1.1-.1.1h-2c-.1 0-.1 0-.1-.1 0 0 0-.1.1-.1h.3c.1 0 .2-.1.2-.4V3.4z"/><g><path d="M26.2 19.2H29v16.9h-2.8zM32.7 27.2l5.4-8h-3.3l-5.5 8 6.2 8.9h3.6zM108.4 28.7h5.6v4.8h-5.6v-4.8zm-.8 7.4h9.3v-15c0-1.1-.9-2-2-2H106v2.6h8.1v4.4h-6.5c-1.1 0-2 .9-2 2v6c0 1.1.9 2 2 2zM101.4 19.2c1.1 0 2 .9 2 2v5.6c0 1.1-.9 2-2 2h-1.1l4.1 7.4h-3.1l-5.5-9.9h4.8v-4.4h-5.7v14.3H92v-17h9.4zM79.4 21.1c0-1.1.9-2 2-2h8.2v2.6h-7.4v4.4h7.1v2.6h-7.1v4.8h7.4v2.6h-8.2c-1.1 0-2-.9-2-2v-13zM67.2 21.1c0-1.1.9-2 2-2h8.1v2.6h-7.2v11.8h7.2v2.6h-8.1c-1.1 0-2-.9-2-2v-13zM55.9 33.5h6V21.7h-6v11.8zm-2.8-12.4c0-1.1.9-2 2-2h7.7c1.1 0 2 .9 2 2v13c0 1.1-.9 2-2 2H55c-1.1 0-2-.9-2-2v-13zM39.6 27v-7.8h2.8v7.2h5.4v-7.2h2.8v14.9c0 1.1-.9 2-2 2h-8.4v-2.6h7.5V29h-6.2c-1 0-1.9-.9-1.9-2z"/><g><path class="st0" d="M8.8 20H1.2v7.6zM8.8 35.2H1.2v-7.6zM8.8 35.2l7.6-7.6L8.8 20zM16.4 20H8.8l4.8-4.8h7.6v7.6l-4.8 4.8zM16.4 35.2H8.8l4.8 4.8h7.6v-7.6l-4.8-4.8z"/></g></g></g></svg>