<svg id="レイヤー_1" xmlns="http://www.w3.org/2000/svg" viewBox="0 0 236 34"><style>.st0{fill:#df0522}</style><path d="M207.9 5.5h-11.2V3.2h-3.5v2.2H182v2.9h25.9V5.5zm2.1 11h5l-1.3 8.2H210v3c6.7 0 13.6-.1 17.4-1.3v-2.8c-2.9 1-6.4 1.2-10.8 1.2l.7-4.4h10.4c.4 2.4.9 5.6 1.1 6 .6 1.3 1.3 1.8 2.7 1.8h1.5c1.6 0 2.8-1.2 2.8-3v-4h-3v3.5c0 .4-.3.7-.7.7-.4 0-.6-.2-.7-.6-.2-.9-1.1-6.8-1.1-6.8h-12.5l.2-1.2h17.7V14H210v2.5zm-5.1 3.3v-9.6h-19.8v9.5h8.4v4.8c0 .6-.5 1.1-1.1 1.1h-2v3h2.6c3.3 0 3.8-1.7 3.8-4v-4.8h8.1zm-16.3-6.7h12.9V17h-12.9v-3.9z"/><path d="M181.8 24.7v3c4.3-.3 7.5-3.3 8-6.5h-3.6c.1-.1-.9 3-4.4 3.5zm21.8-3.6H200c.5 3.3 3.7 6.2 7.9 6.5v-3c-3.3-.4-4.3-3.5-4.3-3.5zm14-12.3c-1.2.3-5.9.9-7.6.9v3.2c1.7-.1 6.2-1.1 7.6-1.5V8.8zm0-3.4c-1.3-.4-5.8-1.3-7.6-1.5v3.2c1.6 0 6.3.6 7.6.9V5.4zm11.3 2.9v-.2h3.5l-.2 1.1h2.8l.6-3.8h-10.4c.4-.7.7-1.5.9-2.2h-3.3c-.2.5-1.2 2.9-4.1 3.3v2.8c1.4-.1 2.6-.5 3.8-1.1h3.1v.2c-.1.6-.7 1.8-2.2 1.8h-4.6V13h4.9c1.9-.1 3.1-.8 3.7-2.2.6 1.4 1.8 2.1 3.7 2.2h4.9v-2.8h-4.7c-1.6-.1-2.2-1.3-2.4-1.9zm-3.6 15.8v-2.6l-5.4-1.1V23l5.4 1.1z"/><g><path d="M34.4 5.4h3.9v23.2h-3.9zM43.2 16.4l7.4-11h-4.5l-7.5 11 8.6 12.2H52zM147.2 18.6h7.7v6.6h-7.7v-6.6zm-1.2 10h12.7V8.1c0-1.5-1.2-2.7-2.7-2.7h-12.2v3.5h11.1V15h-8.8c-1.5 0-2.7 1.2-2.7 2.7v8.2c0 1.5 1.2 2.7 2.6 2.7zM137.5 5.4c1.5 0 2.7 1.2 2.7 2.7v7.6c0 1.5-1.2 2.7-2.7 2.7h-1.6l5.6 10.2h-4.3L129.7 15h6.6V8.9h-7.8v19.7h-3.9V5.4h12.9zM107.4 8.1c0-1.5 1.2-2.7 2.7-2.7h11.3v3.5h-10.1V15h9.8v3.5h-9.8v6.6h10.1v3.5h-11.3c-1.5 0-2.7-1.2-2.7-2.7V8.1zM90.7 8.1c0-1.5 1.2-2.7 2.7-2.7h11.1v3.5h-9.9v16.2h9.9v3.5H93.4c-1.5 0-2.7-1.2-2.7-2.7V8.1zM75.1 25.1h8.3V8.9h-8.3v16.2zm-3.8-17c0-1.5 1.2-2.7 2.7-2.7h10.6c1.5 0 2.7 1.2 2.7 2.7v17.8c0 1.5-1.2 2.7-2.7 2.7H74c-1.5 0-2.7-1.2-2.7-2.7V8.1zM52.7 16.1V5.4h3.9v9.9H64V5.4h3.9v20.5c0 1.5-1.2 2.7-2.7 2.7H53.6v-3.5h10.3v-6.2h-8.6c-1.4-.1-2.6-1.3-2.6-2.8z"/><g><path class="st0" d="M10.4 6.6H0V17zM10.4 27.4H0V17zM10.4 27.4L20.9 17 10.4 6.6z"/><path class="st0" d="M20.9 6.6H10.4L17 0h10.4v10.4L20.9 17zM20.9 27.4H10.4L17 34h10.4V23.6L20.9 17z"/></g></g></svg>