<svg xmlns="http://www.w3.org/2000/svg" viewBox="0 0 273 12"><path d="M3.9 1h-2c-.8 0-1.1.1-1.3.4-.2.2-.3.4-.3.5 0 .1 0 .1-.1.1S0 2 0 1.8.2.4.3.2c0-.2.1-.2.1-.2.1 0 .3.1.6.1h6.5C8.4.2 8.7 0 8.8 0c.1 0 .1.1.1.3v1.6c0 .1 0 .2-.1.2s-.1 0-.1-.3v-.1C8.6 1.4 8.2 1 7 1H5.3v8.5c0 .4.1.7.5.7h.7c.1 0 .2 0 .2.1s-.1.1-.2.1H2.9c-.2 0-.3 0-.3-.1 0 0 0-.1.2-.1h.5c.3 0 .3-.3.4-.8V1zM17 5.7v-.3V3c0-.4-.1-.6-.5-.6h-.4c-.1 0-.2 0-.2-.1s.1-.1.2-.1h3c.1 0 .2 0 .2.1s-.1.1-.2.1h-.3c-.3 0-.4.2-.4.6V9.8c0 .3.1.6.4.6h.6c.2 0 .2 0 .2.1s-.1.1-.2.1h-3.2c-.1 0-.2 0-.2-.1 0 0 0-.1.2-.1h.4c.2 0 .3-.3.3-.6V6.4h-4.4v3.4c0 .3.1.6.4.6h.6c.1 0 .2 0 .2.1s-.1.1-.2.1h-3.2c-.1 0-.2 0-.2-.1 0 0 0-.1.2-.1h.4c.2 0 .3-.3.3-.6V5.4 3c0-.4-.1-.6-.5-.6h-.4c-.1 0-.2 0-.2-.1s.1-.1.2-.1h3c.1 0 .2 0 .2.1s0 .1-.2.1h-.3c-.3 0-.4.2-.4.6v2.7H17zM22.4 5.4V3c0-.4-.1-.6-.5-.6h-.4c-.1 0-.2 0-.2-.1s.1-.1.2-.1h5.7c.1 0 0 0 0 .1s0 .2-.1.7v.7s0 .1-.1.1-.1 0-.1-.1v-.4c-.1-.2-.2-.3-.8-.4h-2.2s-.1 0-.1.1v2.8c0 .1 0 .1.1.1h2.4c.3 0 .4 0 .5-.1.1-.2.2-.3.2-.3s.1 0 .1.1c0 0 0 .2-.1.8v.8c0 .1 0 .2-.1.2s-.1 0-.1-.1v-.4c0-.2-.2-.4-.6-.4H24v2.7c0 .8.6 1 1.7 1 .3 0 1 0 1.3-.1.3-.1.4-.4.5-.8 0-.1 0-.2.1-.2s.1.1.1.2c0 .2-.1 1-.1 1.3-.1.3-.2.3-.6.3H21.8c-.1 0-.2 0-.2-.1s0-.1.2-.1h.4c.2 0 .3-.3.3-.6V7.7l-.1-2.3c-.1 0 0 0 0 0zM44.6 5.4V3c0-.4-.1-.6-.5-.6h-.4c-.1 0-.2 0-.2-.1s.1-.1.2-.1h5.7v.1c0 .1 0 .2-.1.7v.7s0 .1-.1.1-.1 0-.1-.1v-.4c0-.3-.1-.4-.7-.5h-2.2s-.1 0-.1.1v2.8c0 .1 0 .1.1.1h2.4c.3 0 .4 0 .6-.1.1-.1.1-.1.2-.1 0 0 .1 0 .1.1 0 0 0 .2-.1.8v.8c0 .1 0 .2-.1.2s-.1 0-.1-.1V7c0-.2-.2-.4-.6-.4h-2.2v2.7c0 .8.6 1 1.7 1 .3 0 1 0 1.3-.1.3-.1.4-.4.5-.8 0-.1 0-.2.1-.2s.1.1.1.2c0 .2-.1 1-.1 1.3-.1.3-.2.3-.6.3H44.2c-.1 0-.2 0-.2-.1s0-.1.2-.1h.4c.2 0 .3-.3.3-.6V7.8l-.3-2.4c.1 0 0 0 0 0zM104.8 5.4V3c0-.4-.1-.6-.5-.6h-.4c-.1 0-.2 0-.2-.1s.1-.1.2-.1h5.7c.1 0 0 0 0 .1s0 .2-.1.7v.7s0 .1-.1.1-.1 0-.1-.1v-.4c-.1-.2-.2-.3-.8-.4h-2.2s-.1 0-.1.1v2.8c0 .1 0 .1.1.1h2.4c.3 0 .4 0 .5-.1.1-.1.1-.1.2-.1s.1 0 .1.1c0 0 0 .2-.1.8v.8c0 .1 0 .2-.1.2s-.1 0-.1-.1v-.4c0-.2-.2-.4-.6-.4h-2.2s-.1 0-.1.1v2.6c0 .8.6 1 1.7 1 .3 0 1 0 1.3-.1.3-.1.4-.4.5-.8 0-.1 0-.2.1-.2s.1.1.1.2c0 .2-.1 1-.1 1.3-.1.3-.2.3-.6.3H104.1c-.1 0-.2 0-.2-.1s0-.1.2-.1h.4c.2 0 .3-.3.3-.6V5.4zM168.6 5.4V3c0-.4-.1-.6-.5-.6h-.4c-.1 0-.2 0-.2-.1s.1-.1.2-.1h5.7v.1c0 .1 0 .2-.1.7v.7s0 .1-.1.1-.1 0-.1-.1v-.4c-.1-.2-.2-.3-.8-.4h-2.2s-.1 0-.1.1v2.8c0 .1 0 .1.1.1h2.4c.3 0 .4 0 .6-.1.1-.1.1-.1.2-.1 0 0 .1 0 .1.1 0 0 0 .2-.1.8v.8c0 .1 0 .2-.1.2s-.1 0-.1-.1v-.4c0-.2-.2-.4-.6-.4h-2.2v2.7c0 .8.6 1 1.7 1 .3 0 1 0 1.3-.1.3-.1.4-.4.5-.8 0-.1 0-.2.1-.2s.1.1.1.2c0 .2-.1 1-.1 1.3-.1.3-.2.3-.6.3H168.1c-.1 0-.2 0-.2-.1s0-.1.2-.1h.4c.2 0 .3-.3.3-.6V7.9l-.2-2.5c.1 0 0 0 0 0zM34 8.8c0 1.1.2 1.4.5 1.5.2.1.5.1.7.1.1 0 .2 0 .2.1s-.1.1-.3.1H32c-.2 0-.3 0-.3-.1s.1-.1.2-.1h.6c.3-.1.4-.5.4-1.7L33 .6c0-.3 0-.5.2-.5.1 0 .3.2.5.4.3.3 2.1 2.6 3.9 4.6 1.2 1.3 2.5 2.8 2.7 3.1l-.1-6.3c0-.8-.1-1.1-.5-1.3-.2-.1-.5-.1-.7-.1-.1 0-.2 0-.2-.1s.1-.1.3-.1H42c.2 0 .3 0 .3.1s-.1.1-.2.1h-.4c-.4.1-.5.4-.5 1.2l-.1 8.7c0 .3 0 .4-.2.4-.1 0-.3-.1-.5-.3-.8-.8-2.4-2.6-3.5-3.8-1.3-1.5-3-3.5-3.3-3.8l.4 5.9zM52.2 3.2c-.1-.4-.3-.7-.4-.8-.1-.1-.3-.1-.4-.1s-.2 0-.2-.1.1-.1.2-.1H54c.1 0 .2 0 .2.1s-.1.1-.2.1h-.3c-.1 0-.1.1-.1.2s.1.5.2 1c.2.7 1.3 4.1 1.5 4.8l2.2-5.9c.1-.3.2-.4.3-.4.1 0 .2.1.3.5l2.4 5.6c.2-.8 1.1-3.7 1.5-5.1.1-.2.1-.5.1-.6 0-.2-.1-.3-.5-.3-.1 0-.2 0-.2-.1s.1-.1.2-.1h2.2c.1 0 .2 0 .2.1s0 .1-.1.1h-.4c-.3.1-.4.5-.6 1.2-.5 1.4-1.7 5-2.3 6.7-.1.4-.2.5-.3.5-.1 0-.2-.1-.3-.5l-2.4-5.6c-.2.6-1.7 4.6-2.2 5.6-.2.5-.3.6-.4.6s-.2-.1-.3-.4l-2.5-7zM68.8 1.6c-.3-.8-.5-.9-1-1.1h-.5c-.1 0-.1 0-.1-.1s.1-.1.3-.1H71c.1 0 .3 0 .3.1s-.2.1-.3.1c-.2 0-.4 0-.5.1-.1 0-.1.1-.1.3 0 .2.1.6.3 1.1L73 8.2c.6-1.5 2.3-5.9 2.6-6.8 0-.2.1-.4.1-.5 0-.1 0-.2-.2-.2H75c-.1 0-.2 0-.2-.1s.1-.1.4-.1h2.7c.2 0 .3 0 .3.1S78 .5 78 .5c-.1 0-.4 0-.7.1-.2.1-.4.3-.7 1.3-.5 1.3-.9 2-1.6 3.7-.9 2-1.5 3.5-1.8 4.2-.3.8-.4 1-.5 1-.2 0-.2-.2-.5-.8l-3.4-8.4zM79.2 7.8s-.1 0 0 0l-.6 1.5c-.1.3-.2.5-.2.7 0 .2.1.3.4.3h.2c.1 0 .2 0 .2.1s0 .1-.2.1h-2.5c-.1 0-.2 0-.2-.1 0 0 0-.1.1-.1h.3c.5 0 .7-.4 1-1l2.9-7.1c.1-.3.2-.4.3-.4.1 0 .2.1.3.3.3.6 2.1 5.2 2.8 6.9.4 1 .8 1.2 1 1.2h.5c.1 0 .1 0 .1.1s-.1.1-.5.1h-2.2c-.2 0-.3 0-.3-.1 0 0 0-.1.1-.1s.1-.1.1-.2L82 7.9s0-.1-.1-.1h-2.7zm2.5-.5s0-.1 0 0l-1-3v-.1.1l-1.1 2.9v.1h2.1zM89 7.4c0 1.4 0 2.2.2 2.4.2.2.5.2 1.4.2.6 0 1.4 0 1.7-.3.1-.1.3-.5.3-.7 0-.1 0-.2.1-.2s.1 0 .1.2c0 .1-.1 1-.2 1.3 0 .2-.1.3-.7.3h-5.1c-.1 0-.2 0-.2-.1s0-.1.2-.1h.4c.2 0 .3-.3.3-.6V5.4 3c0-.4-.1-.6-.5-.6h-.4c-.1 0-.2 0-.2-.1s.1-.1.2-.1h3.1c.1 0 .2 0 .2.1s0 .1-.2.1h-.4c-.3 0-.4.2-.4.6v2.4l.1 2zM94.4 5.4V3c0-.4-.1-.6-.5-.6h-.4c-.1 0-.2 0-.2-.1s.1-.1.2-.1H96.6c.2 0 .2 0 .2.1s0 .1-.2.1h-.3c-.3 0-.4.2-.4.6v4c0 1.6.3 2.3.9 2.7.5.4 1.1.5 1.4.5.5 0 1.1-.1 1.6-.6.6-.6.7-1.6.7-2.8V5.4 3c0-.4-.1-.6-.5-.6h-.4c-.1 0-.2 0-.2-.1s.1-.1.2-.1h2.6c.1 0 .2 0 .2.1s0 .1-.2.1h-.3c-.3 0-.4.2-.4.6V6.6c0 1.3-.1 2.6-1.1 3.4-.8.7-1.6.8-2.4.8-.6 0-1.7 0-2.6-.8-.6-.5-1-1.3-1-3V5.4zM117.6 6.6v2.9c0 .4.1.7.5.8h.7c.2 0 .2 0 .2.1s-.1.1-.3.1h-3.5c-.2 0-.3 0-.3-.1 0 0 0-.1.2-.1h.5c.3 0 .3-.3.4-.8V4.2 1.3c0-.5-.1-.7-.6-.8h-.5c-.1 0-.2 0-.2-.1s.1-.1.3-.1H121.4c.1 0 .1-.1.2-.1 0 0 .1 0 .1.1s0 .2-.1.6V2c0 .1 0 .2-.1.2s-.1 0-.1-.2c0-.1 0-.3-.1-.5s-.4-.4-.9-.4h-2.7c-.1 0-.1 0-.1.2v3.4c0 .1 0 .1.1.1h2.9c.2 0 .4 0 .6-.2 0-.1.1-.1.2-.1 0 0 .1 0 .1.1s0 .4-.1.9v1c0 .1 0 .2-.1.2s-.1-.1-.1-.2 0-.2-.1-.4c0-.2-.3-.4-.7-.5h-2.6s-.1 0-.1.1l-.1.9c-.1 0 0 0 0 0zM132.5 10.7c.1 0 .2 0 .2.1 0 0-.1 0-.2.1-.8.1-1.7-.1-2.1-.3s-.6-.4-1.5-1.4c-.5-.5-1.6-1.8-1.7-1.9 0 0-.1-.1-.2-.1h-.9s-.1 0-.1.1v2.5c0 .3.1.6.4.6h.6c.1 0 .1 0 .1.1s-.1.1-.2.1H123.8c-.1 0-.2 0-.2-.1 0 0 0-.1.2-.1h.4c.2 0 .3-.3.3-.6V5.4 3c0-.4-.1-.6-.5-.6h-.4c-.1 0-.2 0-.2-.1s.1-.1.2-.1h3.2c.7 0 1.5 0 2.1.5.3.2.8.8.8 1.5 0 .8-.3 1.5-1.4 2.5 1 1.3 1.7 2.2 2.6 3 .4.5 1.2.9 1.6 1zm-6.6-4.4c0 .1 0 .2.1.2.2.1.6.1.9.1.5 0 .6 0 .8-.2.3-.2.7-.8.7-1.7 0-1.6-1.1-2.1-1.7-2.1h-.6c-.1 0-.1 0-.1.1v3.6zM184.5 10.7c.1 0 .2 0 .2.1 0 0-.1 0-.2.1-.8.1-1.7-.1-2.1-.3s-.7-.4-1.5-1.4c-.5-.5-1.6-1.8-1.7-1.9 0 0-.1-.1-.2-.1h-1s-.1 0-.1.1v2.5c0 .3.1.6.4.6h.6c.1 0 .1 0 .1.1s-.1.1-.2.1H175.7c-.1 0-.2 0-.2-.1 0 0 0-.1.2-.1h.4c.2 0 .3-.3.3-.6V5.4 3c0-.4-.1-.6-.5-.6h-.4c-.1 0-.2 0-.2-.1s.1-.1.2-.1h3.2c.7 0 1.5 0 2.1.5.3.2.8.8.8 1.5 0 .8-.3 1.5-1.4 2.5 1 1.3 1.7 2.2 2.6 3 .5.5 1.3.9 1.7 1zm-6.6-4.4c0 .1 0 .2.1.2.2.1.6.1.9.1.4 0 .6 0 .8-.2.3-.2.7-.8.7-1.7 0-1.6-1.1-2.1-1.7-2.1h-.6c-.1 0-.1 0-.1.1v3.6zM132.2 6.4c0-1.9 1.3-4.4 4.7-4.4 2.8 0 4.6 1.6 4.6 4.2s-1.8 4.6-4.8 4.6c-3.2 0-4.5-2.4-4.5-4.4zm7.7.2c0-2.5-1.5-4.1-3.4-4.1-1.3 0-2.8.7-2.8 3.5 0 2.3 1.3 4.2 3.5 4.2.9.1 2.7-.4 2.7-3.6zM144.5 9.1c0 .9.2 1.2.4 1.3.2 0 .4.1.6.1s.2 0 .2.1-.1.1-.2.1h-2.7c-.1 0-.2 0-.2-.1 0 0 0-.1.2-.1h.5c.3-.1.3-.4.3-1.4l.1-6.6c0-.2 0-.4.1-.4s.2.1.4.3c.1.1 1.7 1.9 3.3 3.5.8.8 2.3 2.5 2.5 2.7l-.1-5.1c0-.7-.1-.9-.4-1h-.6c-.1 0-.2 0-.2-.1s.1-.1.3-.1h2.5c.1 0 .2 0 .2.1 0 0 0 .1-.2.1h-.3c-.3.1-.4.3-.4 1v7c0 .2 0 .3-.1.3s-.2-.1-.4-.2c-.7-.7-2.4-2.2-3.4-3.3-1.4-1.5-2.2-2.5-2.5-2.7l.1 4.5zM156.3 2.7h-1.7c-.7 0-1 .1-1.1.3-.1.1-.2.3-.2.4 0 .1 0 .1-.1.1s-.1 0-.1-.2.2-1.2.2-1.3c0-.1 0-.2.1-.2s.2.1.5.1h6.8c.1 0 .1 0 .1.2v1.3c0 .1 0 .2-.1.2s-.1 0-.1-.2c0-.3-.3-.6-1.3-.6h-1.4v7c0 .3.1.6.4.6h.6c.1 0 .2 0 .2.1s-.1.1-.2.1h-3.2c-.1 0-.2 0-.2-.1 0 0 0-.1.2-.1h.4c.2 0 .3-.3.3-.6V7.4l-.1-4.7zM163.4 5.4V3c0-.4-.1-.6-.4-.6h-.4c-.1 0-.2 0-.2-.1 0 0 .1-.1.3-.1h2.9c.1 0 .2 0 .2.1s0 .1-.2.1h-.3c-.3 0-.4.2-.4.6v6.9c0 .3.1.5.5.5h.6c.1 0 .2 0 .2.1s-.1.1-.2.1h-3.2c-.1 0-.2 0-.2-.1s0-.1.2-.1h.4c.2 0 .3-.2.3-.6V7.3l-.1-1.9z"/><g><path d="M254.8 11.2h-.8V5.7c-.3.5-.5.8-.8 1.2l-.4-.9c.9-1.2 1.5-2.9 1.8-4.4l.8.1c0 .4-.2 1.3-.6 2.5v7zM260.1 5.1h.8v6.2h-.8z"/><path d="M255.1 4.8c1.9-1 3-2.5 3.3-3.3h1c.8 1.6 2.3 2.6 3.3 3.3l-.5.8c-1.2-.7-2.5-2-3.2-3.3-.8 1.3-2.1 2.6-3.2 3.3l-.7-.8z"/><path d="M257.7 6.6c0 2.3-.3 3.4-1.6 4.5l-.6-.6c1.1-1 1.5-1.9 1.5-3.9V5.1h.8l-.1 1.5z"/></g><g><path d="M265.2 11.2h-.8V5.7c-.3.5-.5.8-.8 1.2l-.3-.9c.9-1.2 1.5-2.9 1.8-4.4l.8.1c0 .4-.2 1.3-.6 2.5v7zM272.1 10.2v-6h-2.3v-1h3v-.7h-3v-.9h-.8v.9h-2.6v.7h2.6v1h-2.2v6h-1v.7h7.1v-.7h-.8zm-4.4-5.3h3.7v.8h-3.7v-.8zm0 1.5h3.7v.8h-3.7v-.8zm0 1.5h3.7v.8h-3.7v-.8zm0 1.4h3.7v.8h-3.7v-.8z"/></g><g><path d="M202.1 6.7h-5.7V4.9h5.7v1.8zm.8-2.6h-7.4v3.3h3.3V10c0 .3 0 .3-.3.3H197l.2.9h1.5c.7 0 .9-.3.9-.9V7.5h3.3V4.1zM198.8 1.5v1h-4.4v.8h9.7v-.8h-4.5v-1z"/><path d="M196.5 8c-.7 1-1.3 1.6-2.1 2.3l.6.7c1.3-1.2 1.8-1.9 2.3-2.6l-.8-.4zM201.8 8l-.8.3c.8 1.1 1.5 1.8 2.6 2.6l.6-.7c-.9-.6-1.6-1.2-2.4-2.2z"/></g><g><path d="M226.5 2.2h.8v6.6h-.8zM223.5 1.5h-.9c-.5 1-1.6 2.1-2.8 2.7l.4.8c.3-.1.9-.5 1.5-1.1.8-.7 1.2-1.3 1.4-1.6.2.2 1 .8 1.3 1 .3.2 1 .5 1.3.7l.4-.7c-1-.4-2-.9-2.6-1.8zM228.6 1.5v8.6c0 .2-.1.2-.2.2h-1.3l.1.9h1.3c.7 0 .9-.3.9-.8v-9h-.8z"/><path d="M224.2 10.1c-.1.2-.2.2-.4.2H222c-.2 0-.2-.1-.2-.3V5.2h2.3v1.6c-.1.3-.1.4-.5.4h-1.1l.2.9h1c.7 0 1.1-.3 1.2-.7.1-.4.1-1.3.1-2.6v-.4h-4v6.1c0 .5.3.7.8.7h2.4c.5 0 .7-.2.8-.5.2-.5.2-1 .2-1.4l-.8-.2c-.1.3-.1.7-.2 1z"/><g><path d="M235.7 10.3c-.6 0-1.3-.2-1.7-.4-.6-.3-.9-1.1-.9-1.3V5.4H231v.8h1.2v2.9c-.3.5-1.2 1.2-1.3 1.3l.4.8c.6-.5 1-.9 1.4-1.4.6.9 1.5 1.3 2.6 1.3h5.2l.1-.8h-4.9zM232.8 3.9l.7-.6c-.3-.4-.9-1.1-1.7-1.7l-.6.5c.8.7 1.2 1.2 1.6 1.8z"/><path d="M240 9.4v-3h-5.8v3.1h5.8zm-4.9-2.3h4.1v1.6h-4.1V7.1zM237.6 4.8V3.4h2.7v-.8h-2.7V1.5h-.9v1.1h-1.3c.2-.4.2-.6.3-.8l-.7-.2c-.2.6-.7 1.5-1.4 2.2l.6.6c.2-.2.4-.4.8-1.1h1.7v1.3h-3v.8h6.9v-.7l-3 .1z"/></g></g><g><path d="M208.5 6.1c1.3-.5 2.4-1.3 2.9-2.2.8 1.5 2.3 2.1 3.1 2.3l.4-.7c-1.3-.3-2.5-1-3-2.3h1.7c-.1.1-.2.3-.5.6l.7.5c.5-.5.9-1.1 1.3-1.8h-4.8c.1-.2.4-.6.5-.8l-.9-.1c-.4.8-.7 1.3-1.4 1.8l.5.6c.3-.2.5-.5.7-.7h1.3c-.4 1.1-1.4 1.9-2.9 2.2l.4.6zM205.6 2h2.9v.7h-2.9z"/><path d="M205.5 5.8c1-.2 2.3-.8 3-1.3l-.1-.7c-1.5.8-2.5 1.1-3 1.2l.1.8zM208.9 9.6c.5.1 1.3.4 2.1.8l.4-.7c-.6-.3-1.4-.6-2.2-.9l-.3.8z"/><path d="M214.2 9c0 .4 0 1-.1 1.2 0 .2-.2.2-.3.2h-.8c-.2 0-.2-.2-.2-.3V7.8h-4.4c0-.2.1-.4.2-.7h6.2v-.7h-9.2v.7h2.2c-.3 1.1-.9 2.8-1.1 3.3-.5 0-1.1.1-1.3.1l.1.8c1.4 0 3.2-.1 4.4-.2v-.8c-.8 0-1.9.1-2.4.1.3-.7.5-1.3.7-1.8h3.8v2.1c0 .5.4.6.6.6h1.4c.3 0 .5-.2.6-.3.2-.3.3-.9.4-1.6l-.8-.4z"/></g><g><path d="M248.5 3c1.5-.1 2.4-.3 3.2-.7l-.4-.8c-1.3.5-2.5.7-3.6.7v3.9c0 .4 0 1.3-.3 2.6-.2 1-.8 1.6-1.1 1.9l.8.5c.4-.6 1.4-1.9 1.4-5v-.6h1.3v5.6h.9V5.6h1.1v-.7h-3.3V3z"/><path d="M244.3 4.8c0-.1-.1-1-.3-1.6h1.8c0 .4-.2 1.2-.3 1.6h-1.2zm2.9.8v-.8h-1.1c.1-.5.3-1.4.3-1.6h.6v-.7h-1.8v-1h-.8v.9h-2v.8h.8c.2.5.3 1.5.3 1.6h-1.3v.8h2.2v.9h-2.1v.8h2.1v2.8c0 .2-.1.3-.3.3h-.8l.2.8h.8c.7 0 .9-.3.9-.9v-3h1.8v-.8h-1.8v-.9h2z"/><path d="M245.5 8l.6-.5c.3.3.6.9.9 1.3l-.7.6c-.2-.4-.5-.9-.8-1.4zM243.3 7.8c-.4 1-1 1.7-1.3 2l.8.5c.3-.4 1-1.3 1.3-2.3l-.8-.2z"/></g></svg>